# xmcd
#
# Track frame offsets:
#	150
#	10567
#	24400
#	40134
#	52717
#	69398
#	80584
#	94348
#	110733
#	123371
#	137759
#	152514
#	164829
#	175073
#	189388
#	203261
#	217519
#	235399
#	246677
#	260464
#
# Disc length: 3695 seconds
#
# Revision: 1
# Processed by: cddbd v1.5.2PL0 Copyright (c) Steve Scherf et al.
# Submitted via: audiograbber 1.83.01
#
DISCID=050e6d14
DTITLE=clint black - killin' time
DYEAR=1900
DGENRE=
TTITLE0=straight from the factory
TTITLE1=a better man
TTITLE2=nobody's home
TTITLE3=walkin' away
TTITLE4=you're gonna leave me again
TTITLE5=i'll be gone
TTITLE6=noting's news
TTITLE7=winding down
TTITLE8=killin' time
TTITLE9=live and learn
TTITLE10=put yourself in my shoes
TTITLE11=the gulf of mexico
TTITLE12=one more payment
TTITLE13=where are you now
TTITLE14=the old man
TTITLE15=this nightlife
TTITLE16=loving blind
TTITLE17=muddy water
TTITLE18=a heart like mine
TTITLE19=the goodnight-loving
EXTD=
EXTT0=
EXTT1=
EXTT2=
EXTT3=
EXTT4=
EXTT5=
EXTT6=
EXTT7=
EXTT8=
EXTT9=
EXTT10=
EXTT11=
EXTT12=
EXTT13=
EXTT14=
EXTT15=
EXTT16=
EXTT17=
EXTT18=
EXTT19=
PLAYORDER=
